<svg xmlns="http://www.w3.org/2000/svg" version="1.1" xmlns:xlink="http://www.w3.org/1999/xlink" xmlns:svgjs="http://svgjs.com/svgjs" width="1440" height="560" preserveAspectRatio="none" viewBox="0 0 1440 560"><g mask="url(&quot;#SvgjsMask1078&quot;)" fill="none"><rect width="1440" height="560" x="0" y="0" fill="url(#SvgjsLinearGradient1079)"></rect><path d="M395.2 48.49 a149.99 149.99 0 1 0 299.98 0 a149.99 149.99 0 1 0 -299.98 0z" fill="rgba(28, 83, 142, 0.4)" class="triangle-float2"></path><path d="M700.1930694790681-8.600901475067818L636.1321019255784-1.8678224699789663 678.2622042099565 90.85708935771125z" fill="rgba(28, 83, 142, 0.4)" class="triangle-float3"></path><path d="M470.73595040186194 225.1160751397447L483.04147494185514 85.99052020617493 371.50450745205467 135.64997760495976z" fill="rgba(28, 83, 142, 0.4)" class="triangle-float1"></path><path d="M856.16 460.68 a116.52 116.52 0 1 0 233.04 0 a116.52 116.52 0 1 0 -233.04 0z" fill="rgba(28, 83, 142, 0.4)" class="triangle-float1"></path><path d="M1361.63902322309 193.41608272523777L1302.051550515729 90.2075525014649 1198.8430202919562 149.7950252088258 1258.430492999317 253.00355543259866z" fill="rgba(28, 83, 142, 0.4)" class="triangle-float3"></path><path d="M466.51078166530743 235.91644457601944L437.31174093902905 362.3913850341348 563.7866813971444 391.5904257604132 592.9857221234229 265.1154853022978z" fill="rgba(28, 83, 142, 0.4)" class="triangle-float2"></path><path d="M1065.08 357.65 a130.45 130.45 0 1 0 260.9 0 a130.45 130.45 0 1 0 -260.9 0z" fill="rgba(28, 83, 142, 0.4)" class="triangle-float2"></path><path d="M573.921193494274 574.2288663484751L695.5597237730851 534.7061120400666 656.0369694646766 413.0675817612555 534.3984391858655 452.590336069664z" fill="rgba(28, 83, 142, 0.4)" class="triangle-float2"></path><path d="M-38.51 39.86 a112.14 112.14 0 1 0 224.28 0 a112.14 112.14 0 1 0 -224.28 0z" fill="rgba(28, 83, 142, 0.4)" class="triangle-float2"></path><path d="M632.7110808754891 353.0491616373562L716.296054191162 292.32112382132647 583.4115108092809 197.30768275583182z" fill="rgba(28, 83, 142, 0.4)" class="triangle-float2"></path><path d="M622.7507987681275 57.083608905250266L539.8476502572956-49.02758231364913 433.7364590383962 33.8755661971828 516.6396075492281 139.98675741608218z" fill="rgba(28, 83, 142, 0.4)" class="triangle-float1"></path><path d="M59.34703087725076 485.8644857109583L114.8926466554241 574.9448499677854 159.38280509679387 494.6824794999622z" fill="rgba(28, 83, 142, 0.4)" class="triangle-float3"></path><path d="M1139.3 166.83 a106.47 106.47 0 1 0 212.94 0 a106.47 106.47 0 1 0 -212.94 0z" fill="rgba(28, 83, 142, 0.4)" class="triangle-float2"></path><path d="M278.0104721761213 562.4067451329707L348.45766557054054 599.8641822948637 369.4202246161703 475.4646736222884z" fill="rgba(28, 83, 142, 0.4)" class="triangle-float1"></path><path d="M528.1679901730726 155.45430247540355L451.66914936275214 17.44674043067903 390.16042812834803 231.95314328572397z" fill="rgba(28, 83, 142, 0.4)" class="triangle-float3"></path><path d="M1263 408.24 a97.86 97.86 0 1 0 195.72 0 a97.86 97.86 0 1 0 -195.72 0z" fill="rgba(28, 83, 142, 0.4)" class="triangle-float2"></path></g><defs><mask id="SvgjsMask1078"><rect width="1440" height="560" fill="#ffffff"></rect></mask><linearGradient x1="15.28%" y1="-39.29%" x2="84.72%" y2="139.29%" gradientUnits="userSpaceOnUse" id="SvgjsLinearGradient1079"><stop stop-color="#0e2a47" offset="0"></stop><stop stop-color="#00459e" offset="1"></stop></linearGradient><style>
            @keyframes float1 {
                0%{transform: translate(0, 0)}
                50%{transform: translate(-10px, 0)}
                100%{transform: translate(0, 0)}
            }

            .triangle-float1 {
                animation: float1 5s infinite;
            }

            @keyframes float2 {
                0%{transform: translate(0, 0)}
                50%{transform: translate(-5px, -5px)}
                100%{transform: translate(0, 0)}
            }

            .triangle-float2 {
                animation: float2 4s infinite;
            }

            @keyframes float3 {
                0%{transform: translate(0, 0)}
                50%{transform: translate(0, -10px)}
                100%{transform: translate(0, 0)}
            }

            .triangle-float3 {
                animation: float3 6s infinite;
            }
        </style></defs></svg>