<svg xmlns="http://www.w3.org/2000/svg" version="1.1" xmlns:xlink="http://www.w3.org/1999/xlink" xmlns:svgjs="http://svgjs.com/svgjs" width="1440" height="560" preserveAspectRatio="none" viewBox="0 0 1440 560"><g mask="url(&quot;#SvgjsMask1303&quot;)" fill="none"><rect width="1440" height="560" x="0" y="0" fill="url(#SvgjsLinearGradient1304)"></rect><path d="M1096 132L1095 -17" stroke-width="8" stroke="url(#SvgjsLinearGradient1305)" stroke-linecap="round" class="Down"></path><path d="M521 420L520 116" stroke-width="6" stroke="url(#SvgjsLinearGradient1306)" stroke-linecap="round" class="Up"></path><path d="M523 352L522 529" stroke-width="8" stroke="url(#SvgjsLinearGradient1306)" stroke-linecap="round" class="Up"></path><path d="M915 218L914 529" stroke-width="6" stroke="url(#SvgjsLinearGradient1306)" stroke-linecap="round" class="Up"></path><path d="M768 339L767 61" stroke-width="6" stroke="url(#SvgjsLinearGradient1305)" stroke-linecap="round" class="Down"></path><path d="M246 384L245 -32" stroke-width="10" stroke="url(#SvgjsLinearGradient1305)" stroke-linecap="round" class="Down"></path><path d="M1216 377L1215 584" stroke-width="10" stroke="url(#SvgjsLinearGradient1305)" stroke-linecap="round" class="Down"></path><path d="M863 292L862 638" stroke-width="8" stroke="url(#SvgjsLinearGradient1305)" stroke-linecap="round" class="Down"></path><path d="M737 194L736 552" stroke-width="8" stroke="url(#SvgjsLinearGradient1306)" stroke-linecap="round" class="Up"></path><path d="M140 190L139 -21" stroke-width="6" stroke="url(#SvgjsLinearGradient1306)" stroke-linecap="round" class="Up"></path><path d="M1188 133L1187 -55" stroke-width="10" stroke="url(#SvgjsLinearGradient1306)" stroke-linecap="round" class="Up"></path><path d="M292 415L291 164" stroke-width="10" stroke="url(#SvgjsLinearGradient1306)" stroke-linecap="round" class="Up"></path><path d="M1261 297L1260 510" stroke-width="6" stroke="url(#SvgjsLinearGradient1306)" stroke-linecap="round" class="Up"></path><path d="M1311 286L1310 519" stroke-width="10" stroke="url(#SvgjsLinearGradient1305)" stroke-linecap="round" class="Down"></path><path d="M787 70L786 418" stroke-width="6" stroke="url(#SvgjsLinearGradient1305)" stroke-linecap="round" class="Down"></path><path d="M986 9L985 -264" stroke-width="8" stroke="url(#SvgjsLinearGradient1305)" stroke-linecap="round" class="Down"></path><path d="M1343 425L1342 607" stroke-width="10" stroke="url(#SvgjsLinearGradient1306)" stroke-linecap="round" class="Up"></path><path d="M146 509L145 155" stroke-width="10" stroke="url(#SvgjsLinearGradient1306)" stroke-linecap="round" class="Up"></path><path d="M1333 465L1332 776" stroke-width="8" stroke="url(#SvgjsLinearGradient1305)" stroke-linecap="round" class="Down"></path><path d="M814 294L813 521" stroke-width="10" stroke="url(#SvgjsLinearGradient1306)" stroke-linecap="round" class="Up"></path><path d="M233 516L232 359" stroke-width="10" stroke="url(#SvgjsLinearGradient1306)" stroke-linecap="round" class="Up"></path><path d="M323 484L322 760" stroke-width="10" stroke="url(#SvgjsLinearGradient1305)" stroke-linecap="round" class="Down"></path><path d="M1241 460L1240 877" stroke-width="6" stroke="url(#SvgjsLinearGradient1305)" stroke-linecap="round" class="Down"></path><path d="M575 339L574 61" stroke-width="6" stroke="url(#SvgjsLinearGradient1306)" stroke-linecap="round" class="Up"></path><path d="M963 387L962 619" stroke-width="10" stroke="url(#SvgjsLinearGradient1305)" stroke-linecap="round" class="Down"></path><path d="M192 93L191 -77" stroke-width="6" stroke="url(#SvgjsLinearGradient1305)" stroke-linecap="round" class="Down"></path><path d="M1328 356L1327 -48" stroke-width="10" stroke="url(#SvgjsLinearGradient1305)" stroke-linecap="round" class="Down"></path><path d="M81 278L80 675" stroke-width="8" stroke="url(#SvgjsLinearGradient1306)" stroke-linecap="round" class="Up"></path><path d="M763 168L762 6" stroke-width="8" stroke="url(#SvgjsLinearGradient1305)" stroke-linecap="round" class="Down"></path><path d="M415 469L414 92" stroke-width="8" stroke="url(#SvgjsLinearGradient1306)" stroke-linecap="round" class="Up"></path><path d="M950 211L949 -88" stroke-width="6" stroke="url(#SvgjsLinearGradient1306)" stroke-linecap="round" class="Up"></path><path d="M1316 130L1315 -189" stroke-width="6" stroke="url(#SvgjsLinearGradient1306)" stroke-linecap="round" class="Up"></path><path d="M223 183L222 414" stroke-width="8" stroke="url(#SvgjsLinearGradient1306)" stroke-linecap="round" class="Up"></path><path d="M93 439L92 781" stroke-width="6" stroke="url(#SvgjsLinearGradient1306)" stroke-linecap="round" class="Up"></path><path d="M971 123L970 446" stroke-width="6" stroke="url(#SvgjsLinearGradient1306)" stroke-linecap="round" class="Up"></path><path d="M1009 464L1008 282" stroke-width="6" stroke="url(#SvgjsLinearGradient1305)" stroke-linecap="round" class="Down"></path></g><defs><mask id="SvgjsMask1303"><rect width="1440" height="560" fill="#ffffff"></rect></mask><linearGradient x1="50%" y1="100%" x2="50%" y2="0%" gradientUnits="userSpaceOnUse" id="SvgjsLinearGradient1304"><stop stop-color="#0e2a47" offset="0"></stop><stop stop-color="rgba(0, 0, 0, 1)" offset="1"></stop></linearGradient><linearGradient x1="0%" y1="0%" x2="0%" y2="100%" id="SvgjsLinearGradient1305"><stop stop-color="rgba(28, 83, 142, 0)" offset="0"></stop><stop stop-color="#1c538e" offset="1"></stop></linearGradient><linearGradient x1="0%" y1="100%" x2="0%" y2="0%" id="SvgjsLinearGradient1306"><stop stop-color="rgba(28, 83, 142, 0)" offset="0"></stop><stop stop-color="#1c538e" offset="1"></stop></linearGradient></defs></svg>