<svg xmlns="http://www.w3.org/2000/svg" version="1.1" xmlns:xlink="http://www.w3.org/1999/xlink" xmlns:svgjs="http://svgjs.com/svgjs" width="1440" height="560" preserveAspectRatio="none" viewBox="0 0 1440 560"><g mask="url(&quot;#SvgjsMask1151&quot;)" fill="none"><rect width="1440" height="560" x="0" y="0" fill="url(#SvgjsLinearGradient1152)"></rect><path d="M-63.2 509.11L-63.2 509.11" stroke="#132e65" stroke-width="1.5"></path><path d="M-63.2 509.11L-84.98 641.47" stroke="#132e65" stroke-width="1.5"></path><path d="M-63.2 509.11L96.17 509.52" stroke="#132e65" stroke-width="1.5"></path><path d="M-63.2 509.11L88.49 385.16" stroke="#132e65" stroke-width="1.5"></path><path d="M-84.98 641.47L-84.98 641.47" stroke="#132e65" stroke-width="1.5"></path><path d="M88.49 385.16L88.49 385.16" stroke="#132e65" stroke-width="1.5"></path><path d="M88.49 385.16L205.85 381.73" stroke="#132e65" stroke-width="1.5"></path><path d="M88.49 385.16L96.17 509.52" stroke="#132e65" stroke-width="1.5"></path><path d="M88.49 385.16L212.2 501.72" stroke="#132e65" stroke-width="1.5"></path><path d="M96.17 509.52L96.17 509.52" stroke="#132e65" stroke-width="1.5"></path><path d="M96.17 509.52L212.2 501.72" stroke="#132e65" stroke-width="1.5"></path><path d="M96.17 509.52L205.85 381.73" stroke="#132e65" stroke-width="1.5"></path><path d="M205.85 381.73L205.85 381.73" stroke="#132e65" stroke-width="1.5"></path><path d="M205.85 381.73L212.2 501.72" stroke="#132e65" stroke-width="1.5"></path><path d="M212.2 501.72L212.2 501.72" stroke="#132e65" stroke-width="1.5"></path><path d="M212.2 501.72L230.57 669.12" stroke="#132e65" stroke-width="1.5"></path><path d="M230.57 669.12L230.57 669.12" stroke="#132e65" stroke-width="1.5"></path><path d="M230.57 669.12L348.11 684.57" stroke="#132e65" stroke-width="1.5"></path><path d="M230.57 669.12L96.17 509.52" stroke="#132e65" stroke-width="1.5"></path><path d="M230.57 669.12L388.2 506" stroke="#132e65" stroke-width="1.5"></path><path d="M230.57 669.12L504.75 709.38" stroke="#132e65" stroke-width="1.5"></path><path d="M230.57 669.12L489.81 550" stroke="#132e65" stroke-width="1.5"></path><path d="M399.81 408.51L399.81 408.51" stroke="#132e65" stroke-width="1.5"></path><path d="M399.81 408.51L388.2 506" stroke="#132e65" stroke-width="1.5"></path><path d="M399.81 408.51L499.28 338.72" stroke="#132e65" stroke-width="1.5"></path><path d="M399.81 408.51L489.81 550" stroke="#132e65" stroke-width="1.5"></path><path d="M399.81 408.51L205.85 381.73" stroke="#132e65" stroke-width="1.5"></path><path d="M399.81 408.51L212.2 501.72" stroke="#132e65" stroke-width="1.5"></path><path d="M399.81 408.51L663.5 390.52" stroke="#132e65" stroke-width="1.5"></path><path d="M388.2 506L388.2 506" stroke="#132e65" stroke-width="1.5"></path><path d="M388.2 506L489.81 550" stroke="#132e65" stroke-width="1.5"></path><path d="M388.2 506L212.2 501.72" stroke="#132e65" stroke-width="1.5"></path><path d="M388.2 506L348.11 684.57" stroke="#132e65" stroke-width="1.5"></path><path d="M388.2 506L499.28 338.72" stroke="#132e65" stroke-width="1.5"></path><path d="M348.11 684.57L348.11 684.57" stroke="#132e65" stroke-width="1.5"></path><path d="M499.28 338.72L499.28 338.72" stroke="#132e65" stroke-width="1.5"></path><path d="M499.28 338.72L663.5 390.52" stroke="#132e65" stroke-width="1.5"></path><path d="M499.28 338.72L489.81 550" stroke="#132e65" stroke-width="1.5"></path><path d="M499.28 338.72L665.18 518.04" stroke="#132e65" stroke-width="1.5"></path><path d="M499.28 338.72L205.85 381.73" stroke="#132e65" stroke-width="1.5"></path><path d="M489.81 550L489.81 550" stroke="#132e65" stroke-width="1.5"></path><path d="M504.75 709.38L504.75 709.38" stroke="#132e65" stroke-width="1.5"></path><path d="M504.75 709.38L348.11 684.57" stroke="#132e65" stroke-width="1.5"></path><path d="M504.75 709.38L489.81 550" stroke="#132e65" stroke-width="1.5"></path><path d="M504.75 709.38L686.1 664.44" stroke="#132e65" stroke-width="1.5"></path><path d="M663.5 390.52L663.5 390.52" stroke="#132e65" stroke-width="1.5"></path><path d="M663.5 390.52L665.18 518.04" stroke="#132e65" stroke-width="1.5"></path><path d="M663.5 390.52L801.36 392.51" stroke="#132e65" stroke-width="1.5"></path><path d="M663.5 390.52L810.01 556.01" stroke="#132e65" stroke-width="1.5"></path><path d="M663.5 390.52L830.54 233.96" stroke="#132e65" stroke-width="1.5"></path><path d="M665.18 518.04L665.18 518.04" stroke="#132e65" stroke-width="1.5"></path><path d="M665.18 518.04L686.1 664.44" stroke="#132e65" stroke-width="1.5"></path><path d="M665.18 518.04L810.01 556.01" stroke="#132e65" stroke-width="1.5"></path><path d="M665.18 518.04L489.81 550" stroke="#132e65" stroke-width="1.5"></path><path d="M686.1 664.44L686.1 664.44" stroke="#132e65" stroke-width="1.5"></path><path d="M686.1 664.44L822.8 678.74" stroke="#132e65" stroke-width="1.5"></path><path d="M686.1 664.44L810.01 556.01" stroke="#132e65" stroke-width="1.5"></path><path d="M686.1 664.44L489.81 550" stroke="#132e65" stroke-width="1.5"></path><path d="M830.54 233.96L830.54 233.96" stroke="#132e65" stroke-width="1.5"></path><path d="M830.54 233.96L801.36 392.51" stroke="#132e65" stroke-width="1.5"></path><path d="M830.54 233.96L995.14 242.53" stroke="#132e65" stroke-width="1.5"></path><path d="M830.54 233.96L960.63 347.24" stroke="#132e65" stroke-width="1.5"></path><path d="M830.54 233.96L939.9 90.88" stroke="#132e65" stroke-width="1.5"></path><path d="M830.54 233.96L1134.07 210.8" stroke="#132e65" stroke-width="1.5"></path><path d="M801.36 392.51L801.36 392.51" stroke="#132e65" stroke-width="1.5"></path><path d="M801.36 392.51L810.01 556.01" stroke="#132e65" stroke-width="1.5"></path><path d="M801.36 392.51L960.63 347.24" stroke="#132e65" stroke-width="1.5"></path><path d="M801.36 392.51L665.18 518.04" stroke="#132e65" stroke-width="1.5"></path><path d="M801.36 392.51L1011.56 501.74" stroke="#132e65" stroke-width="1.5"></path><path d="M810.01 556.01L810.01 556.01" stroke="#132e65" stroke-width="1.5"></path><path d="M810.01 556.01L822.8 678.74" stroke="#132e65" stroke-width="1.5"></path><path d="M822.8 678.74L822.8 678.74" stroke="#132e65" stroke-width="1.5"></path><path d="M822.8 678.74L967.13 678.08" stroke="#132e65" stroke-width="1.5"></path><path d="M822.8 678.74L665.18 518.04" stroke="#132e65" stroke-width="1.5"></path><path d="M962.38 -86.51L962.38 -86.51" stroke="#132e65" stroke-width="1.5"></path><path d="M962.38 -86.51L1090.01 -57.09" stroke="#132e65" stroke-width="1.5"></path><path d="M962.38 -86.51L939.9 90.88" stroke="#132e65" stroke-width="1.5"></path><path d="M962.38 -86.51L1138.76 93.46" stroke="#132e65" stroke-width="1.5"></path><path d="M962.38 -86.51L1245.09 -63.89" stroke="#132e65" stroke-width="1.5"></path><path d="M939.9 90.88L939.9 90.88" stroke="#132e65" stroke-width="1.5"></path><path d="M939.9 90.88L995.14 242.53" stroke="#132e65" stroke-width="1.5"></path><path d="M995.14 242.53L995.14 242.53" stroke="#132e65" stroke-width="1.5"></path><path d="M995.14 242.53L960.63 347.24" stroke="#132e65" stroke-width="1.5"></path><path d="M995.14 242.53L1134.07 210.8" stroke="#132e65" stroke-width="1.5"></path><path d="M960.63 347.24L960.63 347.24" stroke="#132e65" stroke-width="1.5"></path><path d="M1011.56 501.74L1011.56 501.74" stroke="#132e65" stroke-width="1.5"></path><path d="M1011.56 501.74L1146.19 515.83" stroke="#132e65" stroke-width="1.5"></path><path d="M1011.56 501.74L1141.46 411.69" stroke="#132e65" stroke-width="1.5"></path><path d="M1011.56 501.74L960.63 347.24" stroke="#132e65" stroke-width="1.5"></path><path d="M1011.56 501.74L967.13 678.08" stroke="#132e65" stroke-width="1.5"></path><path d="M1011.56 501.74L1115.91 655.38" stroke="#132e65" stroke-width="1.5"></path><path d="M1011.56 501.74L810.01 556.01" stroke="#132e65" stroke-width="1.5"></path><path d="M967.13 678.08L967.13 678.08" stroke="#132e65" stroke-width="1.5"></path><path d="M967.13 678.08L1115.91 655.38" stroke="#132e65" stroke-width="1.5"></path><path d="M1090.01 -57.09L1090.01 -57.09" stroke="#132e65" stroke-width="1.5"></path><path d="M1090.01 -57.09L1245.09 -63.89" stroke="#132e65" stroke-width="1.5"></path><path d="M1090.01 -57.09L1138.76 93.46" stroke="#132e65" stroke-width="1.5"></path><path d="M1090.01 -57.09L939.9 90.88" stroke="#132e65" stroke-width="1.5"></path><path d="M1090.01 -57.09L1134.07 210.8" stroke="#132e65" stroke-width="1.5"></path><path d="M1090.01 -57.09L1308.69 107.14" stroke="#132e65" stroke-width="1.5"></path><path d="M1138.76 93.46L1138.76 93.46" stroke="#132e65" stroke-width="1.5"></path><path d="M1138.76 93.46L1134.07 210.8" stroke="#132e65" stroke-width="1.5"></path><path d="M1138.76 93.46L1308.69 107.14" stroke="#132e65" stroke-width="1.5"></path><path d="M1138.76 93.46L1245.09 -63.89" stroke="#132e65" stroke-width="1.5"></path><path d="M1134.07 210.8L1134.07 210.8" stroke="#132e65" stroke-width="1.5"></path><path d="M1134.07 210.8L1288.13 248" stroke="#132e65" stroke-width="1.5"></path><path d="M1134.07 210.8L1141.46 411.69" stroke="#132e65" stroke-width="1.5"></path><path d="M1134.07 210.8L1308.69 107.14" stroke="#132e65" stroke-width="1.5"></path><path d="M1134.07 210.8L1288.88 354.67" stroke="#132e65" stroke-width="1.5"></path><path d="M1141.46 411.69L1141.46 411.69" stroke="#132e65" stroke-width="1.5"></path><path d="M1141.46 411.69L1146.19 515.83" stroke="#132e65" stroke-width="1.5"></path><path d="M1141.46 411.69L1288.88 354.67" stroke="#132e65" stroke-width="1.5"></path><path d="M1141.46 411.69L1290.78 507.47" stroke="#132e65" stroke-width="1.5"></path><path d="M1141.46 411.69L960.63 347.24" stroke="#132e65" stroke-width="1.5"></path><path d="M1146.19 515.83L1146.19 515.83" stroke="#132e65" stroke-width="1.5"></path><path d="M1115.91 655.38L1115.91 655.38" stroke="#132e65" stroke-width="1.5"></path><path d="M1115.91 655.38L1146.19 515.83" stroke="#132e65" stroke-width="1.5"></path><path d="M1245.09 -63.89L1245.09 -63.89" stroke="#132e65" stroke-width="1.5"></path><path d="M1245.09 -63.89L1308.69 107.14" stroke="#132e65" stroke-width="1.5"></path><path d="M1245.09 -63.89L1425.1 -99.87" stroke="#132e65" stroke-width="1.5"></path><path d="M1245.09 -63.89L1396.82 109.11" stroke="#132e65" stroke-width="1.5"></path><path d="M1308.69 107.14L1308.69 107.14" stroke="#132e65" stroke-width="1.5"></path><path d="M1308.69 107.14L1396.82 109.11" stroke="#132e65" stroke-width="1.5"></path><path d="M1308.69 107.14L1410.05 203.64" stroke="#132e65" stroke-width="1.5"></path><path d="M1308.69 107.14L1288.13 248" stroke="#132e65" stroke-width="1.5"></path><path d="M1288.13 248L1288.13 248" stroke="#132e65" stroke-width="1.5"></path><path d="M1288.13 248L1288.88 354.67" stroke="#132e65" stroke-width="1.5"></path><path d="M1288.13 248L1410.05 203.64" stroke="#132e65" stroke-width="1.5"></path><path d="M1288.13 248L1396.82 109.11" stroke="#132e65" stroke-width="1.5"></path><path d="M1288.13 248L1391.77 401.64" stroke="#132e65" stroke-width="1.5"></path><path d="M1288.88 354.67L1288.88 354.67" stroke="#132e65" stroke-width="1.5"></path><path d="M1288.88 354.67L1391.77 401.64" stroke="#132e65" stroke-width="1.5"></path><path d="M1288.88 354.67L1290.78 507.47" stroke="#132e65" stroke-width="1.5"></path><path d="M1290.78 507.47L1290.78 507.47" stroke="#132e65" stroke-width="1.5"></path><path d="M1290.78 507.47L1401.29 549.25" stroke="#132e65" stroke-width="1.5"></path><path d="M1290.78 507.47L1146.19 515.83" stroke="#132e65" stroke-width="1.5"></path><path d="M1290.78 507.47L1391.77 401.64" stroke="#132e65" stroke-width="1.5"></path><path d="M1290.78 507.47L1264.96 674.01" stroke="#132e65" stroke-width="1.5"></path><path d="M1264.96 674.01L1264.96 674.01" stroke="#132e65" stroke-width="1.5"></path><path d="M1264.96 674.01L1115.91 655.38" stroke="#132e65" stroke-width="1.5"></path><path d="M1264.96 674.01L1432.34 672.92" stroke="#132e65" stroke-width="1.5"></path><path d="M1264.96 674.01L1401.29 549.25" stroke="#132e65" stroke-width="1.5"></path><path d="M1264.96 674.01L1146.19 515.83" stroke="#132e65" stroke-width="1.5"></path><path d="M1264.96 674.01L1141.46 411.69" stroke="#132e65" stroke-width="1.5"></path><path d="M1425.1 -99.87L1425.1 -99.87" stroke="#132e65" stroke-width="1.5"></path><path d="M1425.1 -99.87L1591.78 -80.96" stroke="#132e65" stroke-width="1.5"></path><path d="M1425.1 -99.87L1396.82 109.11" stroke="#132e65" stroke-width="1.5"></path><path d="M1425.1 -99.87L1308.69 107.14" stroke="#132e65" stroke-width="1.5"></path><path d="M1425.1 -99.87L1538.67 110.18" stroke="#132e65" stroke-width="1.5"></path><path d="M1425.1 -99.87L1410.05 203.64" stroke="#132e65" stroke-width="1.5"></path><path d="M1396.82 109.11L1396.82 109.11" stroke="#132e65" stroke-width="1.5"></path><path d="M1396.82 109.11L1410.05 203.64" stroke="#132e65" stroke-width="1.5"></path><path d="M1396.82 109.11L1538.67 110.18" stroke="#132e65" stroke-width="1.5"></path><path d="M1410.05 203.64L1410.05 203.64" stroke="#132e65" stroke-width="1.5"></path><path d="M1410.05 203.64L1538.67 110.18" stroke="#132e65" stroke-width="1.5"></path><path d="M1410.05 203.64L1569.9 251.51" stroke="#132e65" stroke-width="1.5"></path><path d="M1391.77 401.64L1391.77 401.64" stroke="#132e65" stroke-width="1.5"></path><path d="M1391.77 401.64L1401.29 549.25" stroke="#132e65" stroke-width="1.5"></path><path d="M1401.29 549.25L1401.29 549.25" stroke="#132e65" stroke-width="1.5"></path><path d="M1401.29 549.25L1432.34 672.92" stroke="#132e65" stroke-width="1.5"></path><path d="M1401.29 549.25L1576.21 643.96" stroke="#132e65" stroke-width="1.5"></path><path d="M1432.34 672.92L1432.34 672.92" stroke="#132e65" stroke-width="1.5"></path><path d="M1432.34 672.92L1576.21 643.96" stroke="#132e65" stroke-width="1.5"></path><path d="M1591.78 -80.96L1591.78 -80.96" stroke="#132e65" stroke-width="1.5"></path><path d="M1591.78 -80.96L1538.67 110.18" stroke="#132e65" stroke-width="1.5"></path><path d="M1538.67 110.18L1538.67 110.18" stroke="#132e65" stroke-width="1.5"></path><path d="M1538.67 110.18L1569.9 251.51" stroke="#132e65" stroke-width="1.5"></path><path d="M1569.9 251.51L1569.9 251.51" stroke="#132e65" stroke-width="1.5"></path><path d="M1569.9 251.51L1603.3 346.62" stroke="#132e65" stroke-width="1.5"></path><path d="M1603.3 346.62L1603.3 346.62" stroke="#132e65" stroke-width="1.5"></path><path d="M1603.3 346.62L1391.77 401.64" stroke="#132e65" stroke-width="1.5"></path><path d="M1603.3 346.62L1410.05 203.64" stroke="#132e65" stroke-width="1.5"></path><path d="M1603.3 346.62L1538.67 110.18" stroke="#132e65" stroke-width="1.5"></path><path d="M1603.3 346.62L1401.29 549.25" stroke="#132e65" stroke-width="1.5"></path><path d="M1603.3 346.62L1576.21 643.96" stroke="#132e65" stroke-width="1.5"></path><path d="M1576.21 643.96L1576.21 643.96" stroke="#132e65" stroke-width="1.5"></path><circle r="5" cx="-63.2" cy="509.11" fill="#132e65"></circle><circle r="5" cx="-84.98" cy="641.47" fill="#132e65"></circle><circle r="5" cx="88.49" cy="385.16" fill="#132e65"></circle><circle r="5" cx="96.17" cy="509.52" fill="#132e65"></circle><circle r="5" cx="205.85" cy="381.73" fill="#132e65"></circle><circle r="5" cx="212.2" cy="501.72" fill="#132e65"></circle><circle r="5" cx="230.57" cy="669.12" fill="#132e65"></circle><circle r="5" cx="399.81" cy="408.51" fill="#132e65"></circle><circle r="5" cx="388.2" cy="506" fill="#132e65"></circle><circle r="5" cx="348.11" cy="684.57" fill="#132e65"></circle><circle r="5" cx="499.28" cy="338.72" fill="#132e65"></circle><circle r="5" cx="489.81" cy="550" fill="#132e65"></circle><circle r="5" cx="504.75" cy="709.38" fill="#132e65"></circle><circle r="5" cx="663.5" cy="390.52" fill="#132e65"></circle><circle r="5" cx="665.18" cy="518.04" fill="#132e65"></circle><circle r="5" cx="686.1" cy="664.44" fill="#132e65"></circle><circle r="5" cx="830.54" cy="233.96" fill="#132e65"></circle><circle r="5" cx="801.36" cy="392.51" fill="#132e65"></circle><circle r="5" cx="810.01" cy="556.01" fill="#132e65"></circle><circle r="5" cx="822.8" cy="678.74" fill="#132e65"></circle><circle r="5" cx="962.38" cy="-86.51" fill="#132e65"></circle><circle r="5" cx="939.9" cy="90.88" fill="#132e65"></circle><circle r="5" cx="995.14" cy="242.53" fill="#132e65"></circle><circle r="5" cx="960.63" cy="347.24" fill="#132e65"></circle><circle r="5" cx="1011.56" cy="501.74" fill="#132e65"></circle><circle r="5" cx="967.13" cy="678.08" fill="#132e65"></circle><circle r="5" cx="1090.01" cy="-57.09" fill="#132e65"></circle><circle r="5" cx="1138.76" cy="93.46" fill="#132e65"></circle><circle r="5" cx="1134.07" cy="210.8" fill="#132e65"></circle><circle r="5" cx="1141.46" cy="411.69" fill="#132e65"></circle><circle r="5" cx="1146.19" cy="515.83" fill="#132e65"></circle><circle r="5" cx="1115.91" cy="655.38" fill="#132e65"></circle><circle r="5" cx="1245.09" cy="-63.89" fill="#132e65"></circle><circle r="5" cx="1308.69" cy="107.14" fill="#132e65"></circle><circle r="5" cx="1288.13" cy="248" fill="#132e65"></circle><circle r="5" cx="1288.88" cy="354.67" fill="#132e65"></circle><circle r="5" cx="1290.78" cy="507.47" fill="#132e65"></circle><circle r="5" cx="1264.96" cy="674.01" fill="#132e65"></circle><circle r="5" cx="1425.1" cy="-99.87" fill="#132e65"></circle><circle r="5" cx="1396.82" cy="109.11" fill="#132e65"></circle><circle r="5" cx="1410.05" cy="203.64" fill="#132e65"></circle><circle r="5" cx="1391.77" cy="401.64" fill="#132e65"></circle><circle r="5" cx="1401.29" cy="549.25" fill="#132e65"></circle><circle r="5" cx="1432.34" cy="672.92" fill="#132e65"></circle><circle r="5" cx="1591.78" cy="-80.96" fill="#132e65"></circle><circle r="5" cx="1538.67" cy="110.18" fill="#132e65"></circle><circle r="5" cx="1569.9" cy="251.51" fill="#132e65"></circle><circle r="5" cx="1603.3" cy="346.62" fill="#132e65"></circle><circle r="5" cx="1576.21" cy="643.96" fill="#132e65"></circle><path d="M828.71 404.24L828.71 404.24" stroke="hsl(228.5, 77.2%, 51.5%)" stroke-width="1.5"></path><path d="M828.71 404.24L833.63 553.65" stroke="hsl(228.5, 77.2%, 51.5%)" stroke-width="1.5"></path><path d="M828.71 404.24L972.98 344.68" stroke="hsl(228.5, 77.2%, 51.5%)" stroke-width="1.5"></path><path d="M828.71 404.24L961.85 493.43" stroke="hsl(228.5, 77.2%, 51.5%)" stroke-width="1.5"></path><path d="M828.71 404.24L676.93 524.24" stroke="hsl(228.5, 77.2%, 51.5%)" stroke-width="1.5"></path><path d="M789.6 701.28L789.6 701.28" stroke="hsl(228.5, 77.2%, 51.5%)" stroke-width="1.5"></path><path d="M789.6 701.28L651.28 680.64" stroke="hsl(228.5, 77.2%, 51.5%)" stroke-width="1.5"></path><path d="M789.6 701.28L833.63 553.65" stroke="hsl(228.5, 77.2%, 51.5%)" stroke-width="1.5"></path><path d="M789.6 701.28L985.51 651.64" stroke="hsl(228.5, 77.2%, 51.5%)" stroke-width="1.5"></path><path d="M1252.43 552.17L1252.43 552.17" stroke="hsl(228.5, 77.2%, 51.5%)" stroke-width="1.5"></path><path d="M1252.43 552.17L1295.83 674.79" stroke="hsl(228.5, 77.2%, 51.5%)" stroke-width="1.5"></path><path d="M1252.43 552.17L1131.95 498.76" stroke="hsl(228.5, 77.2%, 51.5%)" stroke-width="1.5"></path><path d="M1252.43 552.17L1409.99 665" stroke="hsl(228.5, 77.2%, 51.5%)" stroke-width="1.5"></path><path d="M1252.43 552.17L1242.24 356.39" stroke="hsl(228.5, 77.2%, 51.5%)" stroke-width="1.5"></path><path d="M1252.43 552.17L1111.65 702.44" stroke="hsl(228.5, 77.2%, 51.5%)" stroke-width="1.5"></path><path d="M1408.47 -52.84L1408.47 -52.84" stroke="hsl(228.5, 77.2%, 51.5%)" stroke-width="1.5"></path><path d="M1408.47 -52.84L1417.14 83.14" stroke="hsl(228.5, 77.2%, 51.5%)" stroke-width="1.5"></path><path d="M1408.47 -52.84L1273.93 -94.13" stroke="hsl(228.5, 77.2%, 51.5%)" stroke-width="1.5"></path><path d="M1427.53 211.18L1427.53 211.18" stroke="hsl(228.5, 77.2%, 51.5%)" stroke-width="1.5"></path><path d="M1427.53 211.18L1417.14 83.14" stroke="hsl(228.5, 77.2%, 51.5%)" stroke-width="1.5"></path><path d="M1427.53 211.18L1396.57 343.41" stroke="hsl(228.5, 77.2%, 51.5%)" stroke-width="1.5"></path><path d="M1427.53 211.18L1577.4 188.61" stroke="hsl(228.5, 77.2%, 51.5%)" stroke-width="1.5"></path><path d="M1568.09 -56.35L1568.09 -56.35" stroke="hsl(228.5, 77.2%, 51.5%)" stroke-width="1.5"></path><path d="M1568.09 -56.35L1579.1 72.7" stroke="hsl(228.5, 77.2%, 51.5%)" stroke-width="1.5"></path><path d="M1568.09 -56.35L1408.47 -52.84" stroke="hsl(228.5, 77.2%, 51.5%)" stroke-width="1.5"></path><path d="M1538.06 380.19L1538.06 380.19" stroke="hsl(228.5, 77.2%, 51.5%)" stroke-width="1.5"></path><path d="M1538.06 380.19L1396.57 343.41" stroke="hsl(228.5, 77.2%, 51.5%)" stroke-width="1.5"></path><path d="M1538.06 380.19L1598.47 538.07" stroke="hsl(228.5, 77.2%, 51.5%)" stroke-width="1.5"></path><path d="M1538.06 380.19L1577.4 188.61" stroke="hsl(228.5, 77.2%, 51.5%)" stroke-width="1.5"></path><path d="M-75.06 556.33L-75.06 556.33" stroke="hsl(228.5, 77.2%, 51.5%)" stroke-width="1.5"></path><path d="M-75.06 556.33L58.05 520.53" stroke="hsl(228.5, 77.2%, 51.5%)" stroke-width="1.5"></path><path d="M-75.06 556.33L236.08 643.05" stroke="hsl(228.5, 77.2%, 51.5%)" stroke-width="1.5"></path><path d="M-75.06 556.33L355.32 646.99" stroke="hsl(228.5, 77.2%, 51.5%)" stroke-width="1.5"></path><path d="M-75.06 556.33L395.16 548.69" stroke="hsl(228.5, 77.2%, 51.5%)" stroke-width="1.5"></path><path d="M58.05 520.53L58.05 520.53" stroke="hsl(228.5, 77.2%, 51.5%)" stroke-width="1.5"></path><path d="M58.05 520.53L236.08 643.05" stroke="hsl(228.5, 77.2%, 51.5%)" stroke-width="1.5"></path><path d="M58.05 520.53L355.32 646.99" stroke="hsl(228.5, 77.2%, 51.5%)" stroke-width="1.5"></path><path d="M58.05 520.53L395.16 548.69" stroke="hsl(228.5, 77.2%, 51.5%)" stroke-width="1.5"></path><path d="M58.05 520.53L555.7 539.26" stroke="hsl(228.5, 77.2%, 51.5%)" stroke-width="1.5"></path><path d="M236.08 643.05L236.08 643.05" stroke="hsl(228.5, 77.2%, 51.5%)" stroke-width="1.5"></path><path d="M236.08 643.05L355.32 646.99" stroke="hsl(228.5, 77.2%, 51.5%)" stroke-width="1.5"></path><path d="M236.08 643.05L395.16 548.69" stroke="hsl(228.5, 77.2%, 51.5%)" stroke-width="1.5"></path><path d="M236.08 643.05L555.7 539.26" stroke="hsl(228.5, 77.2%, 51.5%)" stroke-width="1.5"></path><path d="M236.08 643.05L651.28 680.64" stroke="hsl(228.5, 77.2%, 51.5%)" stroke-width="1.5"></path><path d="M395.16 548.69L395.16 548.69" stroke="hsl(228.5, 77.2%, 51.5%)" stroke-width="1.5"></path><path d="M395.16 548.69L355.32 646.99" stroke="hsl(228.5, 77.2%, 51.5%)" stroke-width="1.5"></path><path d="M395.16 548.69L555.7 539.26" stroke="hsl(228.5, 77.2%, 51.5%)" stroke-width="1.5"></path><path d="M395.16 548.69L676.93 524.24" stroke="hsl(228.5, 77.2%, 51.5%)" stroke-width="1.5"></path><path d="M395.16 548.69L651.28 680.64" stroke="hsl(228.5, 77.2%, 51.5%)" stroke-width="1.5"></path><path d="M355.32 646.99L355.32 646.99" stroke="hsl(228.5, 77.2%, 51.5%)" stroke-width="1.5"></path><path d="M555.7 539.26L555.7 539.26" stroke="hsl(228.5, 77.2%, 51.5%)" stroke-width="1.5"></path><path d="M555.7 539.26L676.93 524.24" stroke="hsl(228.5, 77.2%, 51.5%)" stroke-width="1.5"></path><path d="M555.7 539.26L651.28 680.64" stroke="hsl(228.5, 77.2%, 51.5%)" stroke-width="1.5"></path><path d="M555.7 539.26L355.32 646.99" stroke="hsl(228.5, 77.2%, 51.5%)" stroke-width="1.5"></path><path d="M555.7 539.26L833.63 553.65" stroke="hsl(228.5, 77.2%, 51.5%)" stroke-width="1.5"></path><path d="M676.93 524.24L676.93 524.24" stroke="hsl(228.5, 77.2%, 51.5%)" stroke-width="1.5"></path><path d="M676.93 524.24L651.28 680.64" stroke="hsl(228.5, 77.2%, 51.5%)" stroke-width="1.5"></path><path d="M676.93 524.24L833.63 553.65" stroke="hsl(228.5, 77.2%, 51.5%)" stroke-width="1.5"></path><path d="M651.28 680.64L651.28 680.64" stroke="hsl(228.5, 77.2%, 51.5%)" stroke-width="1.5"></path><path d="M651.28 680.64L833.63 553.65" stroke="hsl(228.5, 77.2%, 51.5%)" stroke-width="1.5"></path><path d="M833.63 553.65L833.63 553.65" stroke="hsl(228.5, 77.2%, 51.5%)" stroke-width="1.5"></path><path d="M833.63 553.65L961.85 493.43" stroke="hsl(228.5, 77.2%, 51.5%)" stroke-width="1.5"></path><path d="M972.98 344.68L972.98 344.68" stroke="hsl(228.5, 77.2%, 51.5%)" stroke-width="1.5"></path><path d="M972.98 344.68L1087.51 370.89" stroke="hsl(228.5, 77.2%, 51.5%)" stroke-width="1.5"></path><path d="M972.98 344.68L961.85 493.43" stroke="hsl(228.5, 77.2%, 51.5%)" stroke-width="1.5"></path><path d="M972.98 344.68L1151.95 244.03" stroke="hsl(228.5, 77.2%, 51.5%)" stroke-width="1.5"></path><path d="M972.98 344.68L1131.95 498.76" stroke="hsl(228.5, 77.2%, 51.5%)" stroke-width="1.5"></path><path d="M972.98 344.68L833.63 553.65" stroke="hsl(228.5, 77.2%, 51.5%)" stroke-width="1.5"></path><path d="M961.85 493.43L961.85 493.43" stroke="hsl(228.5, 77.2%, 51.5%)" stroke-width="1.5"></path><path d="M961.85 493.43L985.51 651.64" stroke="hsl(228.5, 77.2%, 51.5%)" stroke-width="1.5"></path><path d="M961.85 493.43L1131.95 498.76" stroke="hsl(228.5, 77.2%, 51.5%)" stroke-width="1.5"></path><path d="M961.85 493.43L1087.51 370.89" stroke="hsl(228.5, 77.2%, 51.5%)" stroke-width="1.5"></path><path d="M985.51 651.64L985.51 651.64" stroke="hsl(228.5, 77.2%, 51.5%)" stroke-width="1.5"></path><path d="M985.51 651.64L1111.65 702.44" stroke="hsl(228.5, 77.2%, 51.5%)" stroke-width="1.5"></path><path d="M985.51 651.64L833.63 553.65" stroke="hsl(228.5, 77.2%, 51.5%)" stroke-width="1.5"></path><path d="M1156.19 70L1156.19 70" stroke="hsl(228.5, 77.2%, 51.5%)" stroke-width="1.5"></path><path d="M1156.19 70L1282.11 70.52" stroke="hsl(228.5, 77.2%, 51.5%)" stroke-width="1.5"></path><path d="M1156.19 70L1263.65 200.61" stroke="hsl(228.5, 77.2%, 51.5%)" stroke-width="1.5"></path><path d="M1156.19 70L1151.95 244.03" stroke="hsl(228.5, 77.2%, 51.5%)" stroke-width="1.5"></path><path d="M1156.19 70L1273.93 -94.13" stroke="hsl(228.5, 77.2%, 51.5%)" stroke-width="1.5"></path><path d="M1156.19 70L1417.14 83.14" stroke="hsl(228.5, 77.2%, 51.5%)" stroke-width="1.5"></path><path d="M1151.95 244.03L1151.95 244.03" stroke="hsl(228.5, 77.2%, 51.5%)" stroke-width="1.5"></path><path d="M1151.95 244.03L1263.65 200.61" stroke="hsl(228.5, 77.2%, 51.5%)" stroke-width="1.5"></path><path d="M1151.95 244.03L1087.51 370.89" stroke="hsl(228.5, 77.2%, 51.5%)" stroke-width="1.5"></path><path d="M1151.95 244.03L1242.24 356.39" stroke="hsl(228.5, 77.2%, 51.5%)" stroke-width="1.5"></path><path d="M1087.51 370.89L1087.51 370.89" stroke="hsl(228.5, 77.2%, 51.5%)" stroke-width="1.5"></path><path d="M1087.51 370.89L1131.95 498.76" stroke="hsl(228.5, 77.2%, 51.5%)" stroke-width="1.5"></path><path d="M1087.51 370.89L1242.24 356.39" stroke="hsl(228.5, 77.2%, 51.5%)" stroke-width="1.5"></path><path d="M1131.95 498.76L1131.95 498.76" stroke="hsl(228.5, 77.2%, 51.5%)" stroke-width="1.5"></path><path d="M1131.95 498.76L1242.24 356.39" stroke="hsl(228.5, 77.2%, 51.5%)" stroke-width="1.5"></path><path d="M1131.95 498.76L1111.65 702.44" stroke="hsl(228.5, 77.2%, 51.5%)" stroke-width="1.5"></path><path d="M1131.95 498.76L985.51 651.64" stroke="hsl(228.5, 77.2%, 51.5%)" stroke-width="1.5"></path><path d="M1111.65 702.44L1111.65 702.44" stroke="hsl(228.5, 77.2%, 51.5%)" stroke-width="1.5"></path><path d="M1111.65 702.44L1295.83 674.79" stroke="hsl(228.5, 77.2%, 51.5%)" stroke-width="1.5"></path><path d="M1111.65 702.44L961.85 493.43" stroke="hsl(228.5, 77.2%, 51.5%)" stroke-width="1.5"></path><path d="M1273.93 -94.13L1273.93 -94.13" stroke="hsl(228.5, 77.2%, 51.5%)" stroke-width="1.5"></path><path d="M1273.93 -94.13L1282.11 70.52" stroke="hsl(228.5, 77.2%, 51.5%)" stroke-width="1.5"></path><path d="M1273.93 -94.13L1417.14 83.14" stroke="hsl(228.5, 77.2%, 51.5%)" stroke-width="1.5"></path><path d="M1273.93 -94.13L1263.65 200.61" stroke="hsl(228.5, 77.2%, 51.5%)" stroke-width="1.5"></path><path d="M1282.11 70.52L1282.11 70.52" stroke="hsl(228.5, 77.2%, 51.5%)" stroke-width="1.5"></path><path d="M1282.11 70.52L1263.65 200.61" stroke="hsl(228.5, 77.2%, 51.5%)" stroke-width="1.5"></path><path d="M1282.11 70.52L1417.14 83.14" stroke="hsl(228.5, 77.2%, 51.5%)" stroke-width="1.5"></path><path d="M1282.11 70.52L1408.47 -52.84" stroke="hsl(228.5, 77.2%, 51.5%)" stroke-width="1.5"></path><path d="M1282.11 70.52L1427.53 211.18" stroke="hsl(228.5, 77.2%, 51.5%)" stroke-width="1.5"></path><path d="M1263.65 200.61L1263.65 200.61" stroke="hsl(228.5, 77.2%, 51.5%)" stroke-width="1.5"></path><path d="M1263.65 200.61L1242.24 356.39" stroke="hsl(228.5, 77.2%, 51.5%)" stroke-width="1.5"></path><path d="M1242.24 356.39L1242.24 356.39" stroke="hsl(228.5, 77.2%, 51.5%)" stroke-width="1.5"></path><path d="M1242.24 356.39L1396.57 343.41" stroke="hsl(228.5, 77.2%, 51.5%)" stroke-width="1.5"></path><path d="M1295.83 674.79L1295.83 674.79" stroke="hsl(228.5, 77.2%, 51.5%)" stroke-width="1.5"></path><path d="M1295.83 674.79L1409.99 665" stroke="hsl(228.5, 77.2%, 51.5%)" stroke-width="1.5"></path><path d="M1417.14 83.14L1417.14 83.14" stroke="hsl(228.5, 77.2%, 51.5%)" stroke-width="1.5"></path><path d="M1396.57 343.41L1396.57 343.41" stroke="hsl(228.5, 77.2%, 51.5%)" stroke-width="1.5"></path><path d="M1409.99 665L1409.99 665" stroke="hsl(228.5, 77.2%, 51.5%)" stroke-width="1.5"></path><path d="M1579.1 72.7L1579.1 72.7" stroke="hsl(228.5, 77.2%, 51.5%)" stroke-width="1.5"></path><path d="M1579.1 72.7L1577.4 188.61" stroke="hsl(228.5, 77.2%, 51.5%)" stroke-width="1.5"></path><path d="M1579.1 72.7L1417.14 83.14" stroke="hsl(228.5, 77.2%, 51.5%)" stroke-width="1.5"></path><path d="M1579.1 72.7L1427.53 211.18" stroke="hsl(228.5, 77.2%, 51.5%)" stroke-width="1.5"></path><path d="M1579.1 72.7L1408.47 -52.84" stroke="hsl(228.5, 77.2%, 51.5%)" stroke-width="1.5"></path><path d="M1577.4 188.61L1577.4 188.61" stroke="hsl(228.5, 77.2%, 51.5%)" stroke-width="1.5"></path><path d="M1577.4 188.61L1417.14 83.14" stroke="hsl(228.5, 77.2%, 51.5%)" stroke-width="1.5"></path><path d="M1598.47 538.07L1598.47 538.07" stroke="hsl(228.5, 77.2%, 51.5%)" stroke-width="1.5"></path><path d="M1598.47 538.07L1595.74 682.37" stroke="hsl(228.5, 77.2%, 51.5%)" stroke-width="1.5"></path><path d="M1598.47 538.07L1409.99 665" stroke="hsl(228.5, 77.2%, 51.5%)" stroke-width="1.5"></path><path d="M1598.47 538.07L1396.57 343.41" stroke="hsl(228.5, 77.2%, 51.5%)" stroke-width="1.5"></path><path d="M1598.47 538.07L1295.83 674.79" stroke="hsl(228.5, 77.2%, 51.5%)" stroke-width="1.5"></path><path d="M1595.74 682.37L1595.74 682.37" stroke="hsl(228.5, 77.2%, 51.5%)" stroke-width="1.5"></path><path d="M1595.74 682.37L1409.99 665" stroke="hsl(228.5, 77.2%, 51.5%)" stroke-width="1.5"></path><path d="M1595.74 682.37L1295.83 674.79" stroke="hsl(228.5, 77.2%, 51.5%)" stroke-width="1.5"></path><path d="M1595.74 682.37L1538.06 380.19" stroke="hsl(228.5, 77.2%, 51.5%)" stroke-width="1.5"></path><circle r="25" cx="828.71" cy="404.24" fill="url(#SvgjsRadialGradient1153)"></circle><circle r="25" cx="789.6" cy="701.28" fill="url(#SvgjsRadialGradient1153)"></circle><circle r="25" cx="1252.43" cy="552.17" fill="url(#SvgjsRadialGradient1153)"></circle><circle r="25" cx="1408.47" cy="-52.84" fill="url(#SvgjsRadialGradient1153)"></circle><circle r="25" cx="1427.53" cy="211.18" fill="url(#SvgjsRadialGradient1153)"></circle><circle r="25" cx="1568.09" cy="-56.35" fill="url(#SvgjsRadialGradient1153)"></circle><circle r="25" cx="1538.06" cy="380.19" fill="url(#SvgjsRadialGradient1153)"></circle><circle r="5" cx="-75.06" cy="556.33" fill="#8b9ad9"></circle><circle r="5" cx="58.05" cy="520.53" fill="#8b9ad9"></circle><circle r="5" cx="236.08" cy="643.05" fill="#8b9ad9"></circle><circle r="5" cx="395.16" cy="548.69" fill="#8b9ad9"></circle><circle r="5" cx="355.32" cy="646.99" fill="#8b9ad9"></circle><circle r="5" cx="555.7" cy="539.26" fill="#8b9ad9"></circle><circle r="5" cx="676.93" cy="524.24" fill="#8b9ad9"></circle><circle r="5" cx="651.28" cy="680.64" fill="#8b9ad9"></circle><circle r="5" cx="833.63" cy="553.65" fill="#8b9ad9"></circle><circle r="5" cx="972.98" cy="344.68" fill="#8b9ad9"></circle><circle r="5" cx="961.85" cy="493.43" fill="#8b9ad9"></circle><circle r="5" cx="985.51" cy="651.64" fill="#8b9ad9"></circle><circle r="5" cx="1156.19" cy="70" fill="#8b9ad9"></circle><circle r="5" cx="1151.95" cy="244.03" fill="#8b9ad9"></circle><circle r="5" cx="1087.51" cy="370.89" fill="#8b9ad9"></circle><circle r="5" cx="1131.95" cy="498.76" fill="#8b9ad9"></circle><circle r="5" cx="1111.65" cy="702.44" fill="#8b9ad9"></circle><circle r="5" cx="1273.93" cy="-94.13" fill="#8b9ad9"></circle><circle r="5" cx="1282.11" cy="70.52" fill="#8b9ad9"></circle><circle r="5" cx="1263.65" cy="200.61" fill="#8b9ad9"></circle><circle r="5" cx="1242.24" cy="356.39" fill="#8b9ad9"></circle><circle r="5" cx="1295.83" cy="674.79" fill="#8b9ad9"></circle><circle r="5" cx="1417.14" cy="83.14" fill="#8b9ad9"></circle><circle r="5" cx="1396.57" cy="343.41" fill="#8b9ad9"></circle><circle r="5" cx="1409.99" cy="665" fill="#8b9ad9"></circle><circle r="5" cx="1579.1" cy="72.7" fill="#8b9ad9"></circle><circle r="5" cx="1577.4" cy="188.61" fill="#8b9ad9"></circle><circle r="5" cx="1598.47" cy="538.07" fill="#8b9ad9"></circle><circle r="5" cx="1595.74" cy="682.37" fill="#8b9ad9"></circle></g><defs><mask id="SvgjsMask1151"><rect width="1440" height="560" fill="#ffffff"></rect></mask><linearGradient x1="15.28%" y1="-39.29%" x2="84.72%" y2="139.29%" gradientUnits="userSpaceOnUse" id="SvgjsLinearGradient1152"><stop stop-color="#0e2a47" offset="0"></stop><stop stop-color="rgba(0, 0, 0, 1)" offset="1"></stop></linearGradient><radialGradient id="SvgjsRadialGradient1153"><stop stop-color="#ffffff" offset="0.1"></stop><stop stop-color="#1735b3" offset="0.2"></stop><stop stop-color="rgba(23, 53, 179, 0)" offset="1"></stop></radialGradient></defs></svg>